<mxfile host="app.diagrams.net" modified="2020-11-26T07:21:44.082Z" agent="5.0 (Windows NT 10.0; Win64; x64) AppleWebKit/537.36 (KHTML, like Gecko) Chrome/83.0.4103.116 Safari/537.36" etag="qbrS2A-J57F4CQBtxSFr" version="13.10.0" type="github">
  <diagram id="w-n2yBOvHbMStAPGtrfh" name="Page-1">
    <mxGraphModel dx="977" dy="476" grid="1" gridSize="10" guides="1" tooltips="1" connect="1" arrows="1" fold="1" page="1" pageScale="1" pageWidth="850" pageHeight="1100" math="0" shadow="0">
      <root>
        <mxCell id="0" />
        <mxCell id="1" parent="0" />
        <mxCell id="4v-OU17Cv-sKRTJld7IA-16" value="Aktivitas" style="shape=table;html=1;whiteSpace=wrap;startSize=30;container=1;collapsible=0;childLayout=tableLayout;fontStyle=1;align=center;" vertex="1" parent="1">
          <mxGeometry width="180" height="150" as="geometry" />
        </mxCell>
        <mxCell id="4v-OU17Cv-sKRTJld7IA-17" value="" style="shape=partialRectangle;html=1;whiteSpace=wrap;collapsible=0;dropTarget=0;pointerEvents=0;fillColor=none;top=0;left=0;bottom=0;right=0;points=[[0,0.5],[1,0.5]];portConstraint=eastwest;" vertex="1" parent="4v-OU17Cv-sKRTJld7IA-16">
          <mxGeometry y="30" width="180" height="40" as="geometry" />
        </mxCell>
        <mxCell id="4v-OU17Cv-sKRTJld7IA-18" value="No. Id" style="shape=partialRectangle;html=1;whiteSpace=wrap;connectable=0;fillColor=none;top=0;left=0;bottom=0;right=0;overflow=hidden;" vertex="1" parent="4v-OU17Cv-sKRTJld7IA-17">
          <mxGeometry width="60" height="40" as="geometry" />
        </mxCell>
        <mxCell id="4v-OU17Cv-sKRTJld7IA-19" value="&lt;span&gt;ES&lt;/span&gt;" style="shape=partialRectangle;html=1;whiteSpace=wrap;connectable=0;fillColor=none;top=0;left=0;bottom=0;right=0;overflow=hidden;" vertex="1" parent="4v-OU17Cv-sKRTJld7IA-17">
          <mxGeometry x="60" width="60" height="40" as="geometry" />
        </mxCell>
        <mxCell id="4v-OU17Cv-sKRTJld7IA-20" value="LS" style="shape=partialRectangle;html=1;whiteSpace=wrap;connectable=0;fillColor=none;top=0;left=0;bottom=0;right=0;overflow=hidden;" vertex="1" parent="4v-OU17Cv-sKRTJld7IA-17">
          <mxGeometry x="120" width="60" height="40" as="geometry" />
        </mxCell>
        <mxCell id="4v-OU17Cv-sKRTJld7IA-21" value="" style="shape=partialRectangle;html=1;whiteSpace=wrap;collapsible=0;dropTarget=0;pointerEvents=0;fillColor=none;top=0;left=0;bottom=0;right=0;points=[[0,0.5],[1,0.5]];portConstraint=eastwest;" vertex="1" parent="4v-OU17Cv-sKRTJld7IA-16">
          <mxGeometry y="70" width="180" height="40" as="geometry" />
        </mxCell>
        <mxCell id="4v-OU17Cv-sKRTJld7IA-22" value="" style="shape=partialRectangle;html=1;whiteSpace=wrap;connectable=0;fillColor=none;top=0;left=0;bottom=0;right=0;overflow=hidden;" vertex="1" parent="4v-OU17Cv-sKRTJld7IA-21">
          <mxGeometry width="60" height="40" as="geometry" />
        </mxCell>
        <mxCell id="4v-OU17Cv-sKRTJld7IA-23" value="" style="shape=partialRectangle;html=1;whiteSpace=wrap;connectable=0;fillColor=none;top=0;left=0;bottom=0;right=0;overflow=hidden;" vertex="1" parent="4v-OU17Cv-sKRTJld7IA-21">
          <mxGeometry x="60" width="60" height="40" as="geometry" />
        </mxCell>
        <mxCell id="4v-OU17Cv-sKRTJld7IA-24" value="" style="shape=partialRectangle;html=1;whiteSpace=wrap;connectable=0;fillColor=none;top=0;left=0;bottom=0;right=0;overflow=hidden;" vertex="1" parent="4v-OU17Cv-sKRTJld7IA-21">
          <mxGeometry x="120" width="60" height="40" as="geometry" />
        </mxCell>
        <mxCell id="4v-OU17Cv-sKRTJld7IA-25" value="" style="shape=partialRectangle;html=1;whiteSpace=wrap;collapsible=0;dropTarget=0;pointerEvents=0;fillColor=none;top=0;left=0;bottom=0;right=0;points=[[0,0.5],[1,0.5]];portConstraint=eastwest;" vertex="1" parent="4v-OU17Cv-sKRTJld7IA-16">
          <mxGeometry y="110" width="180" height="40" as="geometry" />
        </mxCell>
        <mxCell id="4v-OU17Cv-sKRTJld7IA-26" value="" style="shape=partialRectangle;html=1;whiteSpace=wrap;connectable=0;fillColor=none;top=0;left=0;bottom=0;right=0;overflow=hidden;" vertex="1" parent="4v-OU17Cv-sKRTJld7IA-25">
          <mxGeometry width="60" height="40" as="geometry" />
        </mxCell>
        <mxCell id="4v-OU17Cv-sKRTJld7IA-27" value="" style="shape=partialRectangle;html=1;whiteSpace=wrap;connectable=0;fillColor=none;top=0;left=0;bottom=0;right=0;overflow=hidden;" vertex="1" parent="4v-OU17Cv-sKRTJld7IA-25">
          <mxGeometry x="60" width="60" height="40" as="geometry" />
        </mxCell>
        <mxCell id="4v-OU17Cv-sKRTJld7IA-28" value="" style="shape=partialRectangle;html=1;whiteSpace=wrap;connectable=0;fillColor=none;top=0;left=0;bottom=0;right=0;overflow=hidden;" vertex="1" parent="4v-OU17Cv-sKRTJld7IA-25">
          <mxGeometry x="120" width="60" height="40" as="geometry" />
        </mxCell>
        <mxCell id="4v-OU17Cv-sKRTJld7IA-55" style="edgeStyle=orthogonalEdgeStyle;rounded=0;orthogonalLoop=1;jettySize=auto;html=1;entryX=0;entryY=0.5;entryDx=0;entryDy=0;" edge="1" parent="1" source="4v-OU17Cv-sKRTJld7IA-29" target="4v-OU17Cv-sKRTJld7IA-43">
          <mxGeometry relative="1" as="geometry" />
        </mxCell>
        <mxCell id="4v-OU17Cv-sKRTJld7IA-65" style="edgeStyle=orthogonalEdgeStyle;rounded=0;orthogonalLoop=1;jettySize=auto;html=1;entryX=0;entryY=0.5;entryDx=0;entryDy=0;" edge="1" parent="1" source="4v-OU17Cv-sKRTJld7IA-29" target="4v-OU17Cv-sKRTJld7IA-57">
          <mxGeometry relative="1" as="geometry" />
        </mxCell>
        <mxCell id="4v-OU17Cv-sKRTJld7IA-29" value="Mengembangkan Rencana" style="shape=table;html=1;whiteSpace=wrap;startSize=30;container=1;collapsible=0;childLayout=tableLayout;fontStyle=1;align=center;" vertex="1" parent="1">
          <mxGeometry y="320" width="180" height="110" as="geometry" />
        </mxCell>
        <mxCell id="4v-OU17Cv-sKRTJld7IA-30" value="" style="shape=partialRectangle;html=1;whiteSpace=wrap;collapsible=0;dropTarget=0;pointerEvents=0;fillColor=none;top=0;left=0;bottom=0;right=0;points=[[0,0.5],[1,0.5]];portConstraint=eastwest;" vertex="1" parent="4v-OU17Cv-sKRTJld7IA-29">
          <mxGeometry y="30" width="180" height="40" as="geometry" />
        </mxCell>
        <mxCell id="4v-OU17Cv-sKRTJld7IA-31" value="1" style="shape=partialRectangle;html=1;whiteSpace=wrap;connectable=0;fillColor=none;top=0;left=0;bottom=0;right=0;overflow=hidden;" vertex="1" parent="4v-OU17Cv-sKRTJld7IA-30">
          <mxGeometry width="60" height="40" as="geometry" />
        </mxCell>
        <mxCell id="4v-OU17Cv-sKRTJld7IA-32" value="&lt;span&gt;5 Feb&lt;/span&gt;" style="shape=partialRectangle;html=1;whiteSpace=wrap;connectable=0;fillColor=none;top=0;left=0;bottom=0;right=0;overflow=hidden;" vertex="1" parent="4v-OU17Cv-sKRTJld7IA-30">
          <mxGeometry x="60" width="60" height="40" as="geometry" />
        </mxCell>
        <mxCell id="4v-OU17Cv-sKRTJld7IA-33" value="6 Feb" style="shape=partialRectangle;html=1;whiteSpace=wrap;connectable=0;fillColor=none;top=0;left=0;bottom=0;right=0;overflow=hidden;" vertex="1" parent="4v-OU17Cv-sKRTJld7IA-30">
          <mxGeometry x="120" width="60" height="40" as="geometry" />
        </mxCell>
        <mxCell id="4v-OU17Cv-sKRTJld7IA-34" value="" style="shape=partialRectangle;html=1;whiteSpace=wrap;collapsible=0;dropTarget=0;pointerEvents=0;fillColor=none;top=0;left=0;bottom=0;right=0;points=[[0,0.5],[1,0.5]];portConstraint=eastwest;" vertex="1" parent="4v-OU17Cv-sKRTJld7IA-29">
          <mxGeometry y="70" width="180" height="40" as="geometry" />
        </mxCell>
        <mxCell id="4v-OU17Cv-sKRTJld7IA-35" value="" style="shape=partialRectangle;html=1;whiteSpace=wrap;connectable=0;fillColor=none;top=0;left=0;bottom=0;right=0;overflow=hidden;" vertex="1" parent="4v-OU17Cv-sKRTJld7IA-34">
          <mxGeometry width="60" height="40" as="geometry" />
        </mxCell>
        <mxCell id="4v-OU17Cv-sKRTJld7IA-36" value="" style="shape=partialRectangle;html=1;whiteSpace=wrap;connectable=0;fillColor=none;top=0;left=0;bottom=0;right=0;overflow=hidden;" vertex="1" parent="4v-OU17Cv-sKRTJld7IA-34">
          <mxGeometry x="60" width="60" height="40" as="geometry" />
        </mxCell>
        <mxCell id="4v-OU17Cv-sKRTJld7IA-37" value="" style="shape=partialRectangle;html=1;whiteSpace=wrap;connectable=0;fillColor=none;top=0;left=0;bottom=0;right=0;overflow=hidden;" vertex="1" parent="4v-OU17Cv-sKRTJld7IA-34">
          <mxGeometry x="120" width="60" height="40" as="geometry" />
        </mxCell>
        <mxCell id="4v-OU17Cv-sKRTJld7IA-42" value="Penugasan" style="shape=table;html=1;whiteSpace=wrap;startSize=30;container=1;collapsible=0;childLayout=tableLayout;fontStyle=1;align=center;" vertex="1" parent="1">
          <mxGeometry x="220" y="210" width="180" height="110" as="geometry" />
        </mxCell>
        <mxCell id="4v-OU17Cv-sKRTJld7IA-43" value="" style="shape=partialRectangle;html=1;whiteSpace=wrap;collapsible=0;dropTarget=0;pointerEvents=0;fillColor=none;top=0;left=0;bottom=0;right=0;points=[[0,0.5],[1,0.5]];portConstraint=eastwest;" vertex="1" parent="4v-OU17Cv-sKRTJld7IA-42">
          <mxGeometry y="30" width="180" height="40" as="geometry" />
        </mxCell>
        <mxCell id="4v-OU17Cv-sKRTJld7IA-44" value="2" style="shape=partialRectangle;html=1;whiteSpace=wrap;connectable=0;fillColor=none;top=0;left=0;bottom=0;right=0;overflow=hidden;" vertex="1" parent="4v-OU17Cv-sKRTJld7IA-43">
          <mxGeometry width="60" height="40" as="geometry" />
        </mxCell>
        <mxCell id="4v-OU17Cv-sKRTJld7IA-45" value="&lt;span&gt;6 Feb&lt;/span&gt;" style="shape=partialRectangle;html=1;whiteSpace=wrap;connectable=0;fillColor=none;top=0;left=0;bottom=0;right=0;overflow=hidden;" vertex="1" parent="4v-OU17Cv-sKRTJld7IA-43">
          <mxGeometry x="60" width="60" height="40" as="geometry" />
        </mxCell>
        <mxCell id="4v-OU17Cv-sKRTJld7IA-46" value="9 Feb" style="shape=partialRectangle;html=1;whiteSpace=wrap;connectable=0;fillColor=none;top=0;left=0;bottom=0;right=0;overflow=hidden;" vertex="1" parent="4v-OU17Cv-sKRTJld7IA-43">
          <mxGeometry x="120" width="60" height="40" as="geometry" />
        </mxCell>
        <mxCell id="4v-OU17Cv-sKRTJld7IA-47" value="" style="shape=partialRectangle;html=1;whiteSpace=wrap;collapsible=0;dropTarget=0;pointerEvents=0;fillColor=none;top=0;left=0;bottom=0;right=0;points=[[0,0.5],[1,0.5]];portConstraint=eastwest;" vertex="1" parent="4v-OU17Cv-sKRTJld7IA-42">
          <mxGeometry y="70" width="180" height="40" as="geometry" />
        </mxCell>
        <mxCell id="4v-OU17Cv-sKRTJld7IA-48" value="" style="shape=partialRectangle;html=1;whiteSpace=wrap;connectable=0;fillColor=none;top=0;left=0;bottom=0;right=0;overflow=hidden;" vertex="1" parent="4v-OU17Cv-sKRTJld7IA-47">
          <mxGeometry width="60" height="40" as="geometry" />
        </mxCell>
        <mxCell id="4v-OU17Cv-sKRTJld7IA-49" value="" style="shape=partialRectangle;html=1;whiteSpace=wrap;connectable=0;fillColor=none;top=0;left=0;bottom=0;right=0;overflow=hidden;" vertex="1" parent="4v-OU17Cv-sKRTJld7IA-47">
          <mxGeometry x="60" width="60" height="40" as="geometry" />
        </mxCell>
        <mxCell id="4v-OU17Cv-sKRTJld7IA-50" value="" style="shape=partialRectangle;html=1;whiteSpace=wrap;connectable=0;fillColor=none;top=0;left=0;bottom=0;right=0;overflow=hidden;" vertex="1" parent="4v-OU17Cv-sKRTJld7IA-47">
          <mxGeometry x="120" width="60" height="40" as="geometry" />
        </mxCell>
        <mxCell id="4v-OU17Cv-sKRTJld7IA-56" value="Memperoleh Perangkat Keras" style="shape=table;html=1;whiteSpace=wrap;startSize=30;container=1;collapsible=0;childLayout=tableLayout;fontStyle=1;align=center;" vertex="1" parent="1">
          <mxGeometry x="220" y="430" width="180" height="110" as="geometry" />
        </mxCell>
        <mxCell id="4v-OU17Cv-sKRTJld7IA-57" value="" style="shape=partialRectangle;html=1;whiteSpace=wrap;collapsible=0;dropTarget=0;pointerEvents=0;fillColor=none;top=0;left=0;bottom=0;right=0;points=[[0,0.5],[1,0.5]];portConstraint=eastwest;" vertex="1" parent="4v-OU17Cv-sKRTJld7IA-56">
          <mxGeometry y="30" width="180" height="40" as="geometry" />
        </mxCell>
        <mxCell id="4v-OU17Cv-sKRTJld7IA-58" value="3" style="shape=partialRectangle;html=1;whiteSpace=wrap;connectable=0;fillColor=none;top=0;left=0;bottom=0;right=0;overflow=hidden;" vertex="1" parent="4v-OU17Cv-sKRTJld7IA-57">
          <mxGeometry width="60" height="40" as="geometry" />
        </mxCell>
        <mxCell id="4v-OU17Cv-sKRTJld7IA-59" value="&lt;span&gt;6 Feb&lt;/span&gt;" style="shape=partialRectangle;html=1;whiteSpace=wrap;connectable=0;fillColor=none;top=0;left=0;bottom=0;right=0;overflow=hidden;" vertex="1" parent="4v-OU17Cv-sKRTJld7IA-57">
          <mxGeometry x="60" width="60" height="40" as="geometry" />
        </mxCell>
        <mxCell id="4v-OU17Cv-sKRTJld7IA-60" value="26 Feb" style="shape=partialRectangle;html=1;whiteSpace=wrap;connectable=0;fillColor=none;top=0;left=0;bottom=0;right=0;overflow=hidden;" vertex="1" parent="4v-OU17Cv-sKRTJld7IA-57">
          <mxGeometry x="120" width="60" height="40" as="geometry" />
        </mxCell>
        <mxCell id="4v-OU17Cv-sKRTJld7IA-61" value="" style="shape=partialRectangle;html=1;whiteSpace=wrap;collapsible=0;dropTarget=0;pointerEvents=0;fillColor=none;top=0;left=0;bottom=0;right=0;points=[[0,0.5],[1,0.5]];portConstraint=eastwest;" vertex="1" parent="4v-OU17Cv-sKRTJld7IA-56">
          <mxGeometry y="70" width="180" height="40" as="geometry" />
        </mxCell>
        <mxCell id="4v-OU17Cv-sKRTJld7IA-62" value="" style="shape=partialRectangle;html=1;whiteSpace=wrap;connectable=0;fillColor=none;top=0;left=0;bottom=0;right=0;overflow=hidden;" vertex="1" parent="4v-OU17Cv-sKRTJld7IA-61">
          <mxGeometry width="60" height="40" as="geometry" />
        </mxCell>
        <mxCell id="4v-OU17Cv-sKRTJld7IA-63" value="" style="shape=partialRectangle;html=1;whiteSpace=wrap;connectable=0;fillColor=none;top=0;left=0;bottom=0;right=0;overflow=hidden;" vertex="1" parent="4v-OU17Cv-sKRTJld7IA-61">
          <mxGeometry x="60" width="60" height="40" as="geometry" />
        </mxCell>
        <mxCell id="4v-OU17Cv-sKRTJld7IA-64" value="" style="shape=partialRectangle;html=1;whiteSpace=wrap;connectable=0;fillColor=none;top=0;left=0;bottom=0;right=0;overflow=hidden;" vertex="1" parent="4v-OU17Cv-sKRTJld7IA-61">
          <mxGeometry x="120" width="60" height="40" as="geometry" />
        </mxCell>
      </root>
    </mxGraphModel>
  </diagram>
</mxfile>
